<svg xmlns="http://www.w3.org/2000/svg" viewBox="0 0 48 52">
  <path fill="#8b5cf6" d="M47.6 6.63C42.79 3.61 34.91 0 24.64 0S6.48 3.61 1.68 6.63L0 7.69l.06 1.98c.07 2.54.37 5.69 1.14 9.18l.48-.3c1.63-1.03 3.62-2.11 5.93-3.11-.24-1.41-.4-2.74-.5-3.95a36.1 36.1 0 0 1 17.53-4.54c7.48 0 13.45 2.28 17.53 4.54-.09 1.21-.25 2.54-.5 3.95 2.31 1 4.3 2.08 5.93 3.11l.48.3a49 49 0 0 0 1.14-9.18l.06-1.98zM24.92 18.88h-.56c-1.88.01-3.66.19-5.34.45v6.94a35.711 35.711 0 0 1 18.28 1.86c-.19.35-.38.7-.58 1.05a41.25 41.25 0 0 1-12.08 13.2 41.5 41.5 0 0 1-12.08-13.2c-.2-.35-.39-.7-.58-1.05a41.6 41.6 0 0 1-2.59-5.86c-.06-.17-.12-.35-.18-.52-2.42.93-4.53 1.99-6.3 3.02.91 2.55 2.1 5.2 3.64 7.87.35.61.72 1.21 1.09 1.79 1.47 2.32 3.05 4.36 4.66 6.17 3.68 4.13 7.5 7.01 10.52 8.89l1.84 1.14 1.84-1.14c3.01-1.88 6.84-4.75 10.52-8.89a48 48 0 0 0 4.66-6.18 48.112 48.112 0 0 0 4.72-9.65 44 44 0 0 0-6.3-3.02 42.6 42.6 0 0 0-15.16-2.86z"/>
</svg>
